<?xml version="1.0" encoding="utf-8"?>
<!-- Generator: Adobe Illustrator 16.0.0, SVG Export Plug-In . SVG Version: 6.00 Build 0)  -->
<!DOCTYPE svg PUBLIC "-//W3C//DTD SVG 1.1//EN" "http://www.w3.org/Graphics/SVG/1.1/DTD/svg11.dtd">
<svg version="1.1" id="Layer_1" xmlns="http://www.w3.org/2000/svg" xmlns:xlink="http://www.w3.org/1999/xlink" x="0px" y="0px"
	 width="466px" height="100px" viewBox="0 0 466 100" enable-background="new 0 0 466 100" xml:space="preserve">
<g>
	<g>
		<path fill="#929497" d="M222.193,90.098l-36.248-62.309l-33.778,62.309h-7.644l43.7-80.195h4.145l46.887,80.195H222.193z"/>
	</g>
	<g>
		<g>
			<path fill="#929497" d="M30.472,38.191c0-3.399,0-4.01-0.048-4.707c-0.054-0.735-0.228-1.08-0.997-1.236
				c-0.192-0.042-0.593-0.062-0.808-0.062c-0.1,0-0.182-0.051-0.182-0.137c0-0.124,0.115-0.171,0.369-0.171
				c1.062,0,2.451,0.061,2.585,0.061c0.219,0,1.574-0.061,2.281-0.061c0.25,0,0.368,0.047,0.368,0.171
				c0,0.086-0.085,0.137-0.191,0.137c-0.158,0-0.307,0.021-0.589,0.062c-0.617,0.107-0.81,0.484-0.853,1.236
				c-0.049,0.697-0.049,1.308-0.049,4.707v1.299h0.091c0.386-0.413,4.636-4.419,5.492-5.268c0.647-0.629,1.265-1.189,1.265-1.561
				c0-0.258-0.114-0.397-0.306-0.456c-0.118-0.05-0.208-0.092-0.208-0.188c0-0.094,0.117-0.141,0.263-0.141
				c0.487,0,1.21,0.061,1.773,0.061c0.121,0,1.672-0.061,2.261-0.061c0.248,0,0.349,0.047,0.349,0.141
				c0,0.117-0.055,0.167-0.246,0.167c-0.338,0-0.829,0.108-1.301,0.299c-0.958,0.396-1.49,0.942-2.536,1.869
				c-0.59,0.524-4.663,4.224-5.166,4.761c0.609,0.633,5.492,5.31,6.449,6.146c1.976,1.688,2.373,2.04,3.517,2.477
				c0.601,0.237,1.279,0.273,1.445,0.273c0.172,0,0.31,0.046,0.31,0.137c0,0.107-0.122,0.18-0.522,0.18h-1.194
				c-0.665,0-1.104,0-1.623-0.06c-1.252-0.093-1.846-0.579-2.832-1.319c-1.06-0.8-6.04-5.776-7.176-7.062h-0.104v2.131
				c0,2.081,0,3.803,0.104,4.718c0.075,0.624,0.208,1.11,0.915,1.193c0.342,0.046,0.711,0.082,0.92,0.082
				c0.145,0,0.191,0.068,0.191,0.137c0,0.107-0.121,0.18-0.373,0.18c-1.151,0-2.506-0.071-2.703-0.071
				c-0.188,0-1.546,0.071-2.254,0.071c-0.264,0-0.385-0.06-0.385-0.18c0-0.067,0.058-0.137,0.188-0.137
				c0.212,0,0.507-0.036,0.708-0.082c0.474-0.083,0.592-0.569,0.684-1.193c0.117-0.916,0.117-2.638,0.117-4.718L30.472,38.191
				L30.472,38.191z"/>
			<path fill="#929497" d="M49.347,39.688c0-2.866,0-3.397-0.055-3.988c-0.051-0.627-0.148-0.927-0.851-1.018
				c-0.154-0.023-0.512-0.04-0.705-0.04c-0.055,0-0.16-0.091-0.16-0.152c0-0.11,0.105-0.156,0.336-0.156
				c0.932,0,2.274,0.046,2.393,0.046c0.15,0,4.458,0.021,4.929,0c0.402-0.023,0.771-0.081,0.943-0.117
				c0.093-0.011,0.18-0.08,0.286-0.08c0.055,0,0.091,0.08,0.091,0.173c0,0.134-0.126,0.345-0.166,0.875
				c-0.031,0.169-0.079,1.002-0.118,1.216c-0.035,0.087-0.093,0.198-0.191,0.198c-0.118,0-0.169-0.095-0.169-0.237
				c0-0.133-0.027-0.438-0.114-0.655c-0.149-0.308-0.358-0.438-1.476-0.57c-0.355-0.039-2.743-0.069-2.986-0.069
				c-0.087,0-0.114,0.069-0.114,0.201v5.033c0,0.132,0,0.199,0.114,0.199c0.258,0,2.986,0,3.445-0.048
				c0.502-0.051,0.807-0.08,1.017-0.269c0.145-0.124,0.235-0.232,0.31-0.232c0.071,0,0.102,0.043,0.102,0.151
				c0,0.109-0.102,0.408-0.165,1.025c-0.038,0.371-0.082,1.053-0.082,1.19c0,0.147-0.051,0.35-0.182,0.35
				c-0.102,0-0.144-0.062-0.144-0.172c0-0.178,0-0.377-0.107-0.61c-0.054-0.268-0.247-0.485-1.04-0.568
				c-0.565-0.065-2.778-0.089-3.139-0.089c-0.103,0-0.13,0.073-0.13,0.132v1.547c0,0.63-0.027,2.775,0,3.152
				c0.048,1.238,0.408,1.479,2.467,1.479c0.533,0,1.52,0,2.061-0.198c0.534-0.207,0.818-0.534,0.936-1.279
				c0.043-0.214,0.101-0.283,0.215-0.283c0.122,0,0.134,0.153,0.134,0.283c0,0.128-0.161,1.387-0.275,1.786
				c-0.152,0.478-0.357,0.478-1.15,0.478c-1.556,0-2.749-0.038-3.589-0.062c-0.872-0.05-1.415-0.05-1.713-0.05
				c-0.04,0-0.44,0-0.898,0.013c-0.397,0.037-0.856,0.061-1.194,0.061c-0.209,0-0.328-0.061-0.328-0.152
				c0-0.069,0.044-0.164,0.158-0.164c0.201,0,0.448-0.055,0.644-0.082c0.396-0.062,0.457-0.438,0.543-0.979
				c0.116-0.759,0.116-2.223,0.116-3.999L49.347,39.688L49.347,39.688z"/>
			<path fill="#929497" d="M64.903,45.794c0.045,1.535,0.239,1.984,0.8,2.114c0.365,0.09,0.84,0.104,1.029,0.104
				c0.091,0,0.165,0.068,0.165,0.164c0,0.093-0.134,0.152-0.385,0.152c-1.182,0-1.991-0.072-2.172-0.072
				c-0.188,0-1.06,0.072-2.003,0.072c-0.212,0-0.325-0.022-0.325-0.152c0-0.096,0.078-0.164,0.161-0.164
				c0.164,0,0.542-0.014,0.84-0.104c0.53-0.13,0.605-0.63,0.605-2.305v-10.6c0-0.742,0.103-0.93,0.267-0.93
				c0.238,0,0.593,0.369,0.813,0.567c0.319,0.308,3.335,3.262,6.524,6.311c2.038,1.957,4.233,4.158,4.865,4.76l-0.204-9.267
				c-0.027-1.197-0.145-1.607-0.77-1.715c-0.385-0.072-0.857-0.089-1.018-0.089c-0.13,0-0.166-0.112-0.166-0.17
				c0-0.116,0.166-0.139,0.398-0.139c0.951,0,1.924,0.046,2.172,0.046c0.224,0,0.902-0.046,1.761-0.046
				c0.203,0,0.363,0.021,0.363,0.139c0,0.058-0.085,0.17-0.218,0.17c-0.107,0-0.263,0-0.504,0.04
				c-0.68,0.129-0.733,0.499-0.733,1.608L77.12,47.131c0,1.209-0.016,1.318-0.161,1.318c-0.206,0-0.408-0.144-1.567-1.119
				c-0.208-0.181-3.202-2.904-5.386-5.01c-2.376-2.325-4.708-4.598-5.337-5.246L64.903,45.794z"/>
			<path fill="#929497" d="M84.875,39.688c0-2.866,0-3.397-0.048-3.988c-0.058-0.627-0.176-0.927-0.84-1.018
				c-0.169-0.023-0.53-0.04-0.71-0.04c-0.076,0-0.165-0.091-0.165-0.152c0-0.11,0.089-0.156,0.318-0.156
				c0.938,0,2.281,0.046,2.398,0.046c0.241,0,1.551-0.046,2.773-0.046c2.071,0,5.846-0.174,8.28,2.112
				c1.037,0.963,2.027,2.499,2.027,4.697c0,2.325-1.08,4.118-2.233,5.2c-0.898,0.847-2.741,2.131-6.251,2.131
				c-0.905,0-2.011-0.062-2.894-0.107c-0.901-0.061-1.611-0.109-1.703-0.109c-0.04,0-0.415,0.013-0.84,0.013
				c-0.427,0.037-0.915,0.061-1.237,0.061c-0.223,0-0.341-0.061-0.341-0.152c0-0.069,0.047-0.164,0.163-0.164
				c0.191,0,0.458-0.036,0.642-0.082c0.405-0.083,0.437-0.439,0.539-0.98c0.123-0.758,0.123-2.222,0.123-3.998L84.875,39.688
				L84.875,39.688z M86.747,41.692c0,1.954,0,3.678,0.028,4.019c0.011,0.452,0.071,1.137,0.217,1.33
				c0.266,0.342,1.001,0.737,3.444,0.737c1.906,0,3.585-0.59,4.824-1.676c1.08-0.938,1.622-2.703,1.622-4.397
				c0-2.34-1.104-3.845-1.945-4.632c-1.947-1.825-4.221-2.069-6.684-2.069c-0.4,0-1.064,0.067-1.26,0.137
				c-0.172,0.068-0.245,0.15-0.245,0.368L86.747,41.692L86.747,41.692z"/>
			<path fill="#929497" d="M111.463,34.074c4.647,0,8.163,2.632,8.163,6.934c0,4.137-3.308,7.558-8.292,7.558
				c-5.656,0-8.063-3.941-8.063-7.27C103.271,38.319,105.749,34.074,111.463,34.074z M111.924,47.805
				c1.854,0,5.588-0.916,5.588-6.262c0-4.446-2.906-6.771-6.178-6.771c-3.445,0-5.935,1.997-5.935,6.016
				C105.4,45.109,108.185,47.805,111.924,47.805z"/>
			<path fill="#929497" d="M126.578,45.794c0.028,1.535,0.231,1.984,0.781,2.114c0.382,0.09,0.856,0.104,1.046,0.104
				c0.094,0,0.158,0.068,0.158,0.164c0,0.093-0.142,0.152-0.378,0.152c-1.168,0-1.987-0.072-2.184-0.072
				c-0.196,0-1.053,0.072-1.993,0.072c-0.207,0-0.325-0.022-0.325-0.152c0-0.096,0.058-0.164,0.161-0.164
				c0.164,0,0.526-0.014,0.84-0.104c0.522-0.13,0.593-0.63,0.593-2.305v-10.6c0-0.742,0.119-0.93,0.275-0.93
				c0.24,0,0.578,0.369,0.801,0.567c0.342,0.308,3.339,3.262,6.524,6.311c2.035,1.957,4.254,4.158,4.887,4.76l-0.21-9.267
				c-0.027-1.197-0.145-1.607-0.782-1.715c-0.368-0.072-0.843-0.089-1.004-0.089c-0.133,0-0.161-0.112-0.161-0.17
				c0-0.116,0.161-0.139,0.396-0.139c0.932,0,1.92,0.046,2.154,0.046c0.238,0,0.917-0.046,1.754-0.046
				c0.224,0,0.394,0.021,0.394,0.139c0,0.058-0.111,0.17-0.24,0.17c-0.09,0-0.268,0-0.499,0.04
				c-0.683,0.129-0.727,0.499-0.727,1.608l-0.047,10.841c0,1.209-0.027,1.318-0.165,1.318c-0.2,0-0.424-0.144-1.556-1.119
				c-0.227-0.181-3.205-2.904-5.388-5.01c-2.395-2.325-4.708-4.598-5.357-5.246L126.578,45.794z"/>
			<path fill="#929497" d="M156.4,43.606c0-1.512-0.054-1.722-0.904-1.874c-0.161-0.026-0.509-0.039-0.705-0.039
				c-0.072,0-0.163-0.091-0.163-0.149c0-0.139,0.091-0.159,0.341-0.159c0.929,0,2.318,0.047,2.432,0.047
				c0.09,0,1.391-0.047,2.02-0.047c0.248,0,0.33,0.021,0.33,0.159c0,0.06-0.082,0.149-0.161,0.149c-0.133,0-0.283,0-0.515,0.039
				c-0.565,0.087-0.743,0.362-0.79,1.027c-0.008,0.579-0.008,1.122-0.008,1.913v2.062c0,0.846-0.031,0.864-0.283,1.002
				c-1.315,0.628-3.203,0.827-4.398,0.827c-1.566,0-4.5-0.171-6.803-1.979c-1.269-0.983-2.466-2.966-2.466-5.273
				c0-2.959,1.63-5.04,3.457-6.064c1.854-1.043,3.908-1.174,5.49-1.174c1.31,0,2.773,0.224,3.155,0.305
				c0.432,0.093,1.17,0.201,1.681,0.201c0.194,0,0.256,0.078,0.256,0.165c0,0.26-0.118,0.766-0.118,2.611
				c0,0.3-0.089,0.392-0.235,0.392c-0.118,0-0.134-0.104-0.134-0.28c-0.018-0.233-0.15-0.782-0.477-1.218
				c-0.514-0.699-2.093-1.438-4.764-1.438c-1.241,0-2.742,0.091-4.325,1.198c-1.194,0.854-2.034,2.503-2.034,4.656
				c0,2.613,1.458,4.479,2.184,5.117c1.635,1.407,3.375,1.931,5.282,1.931c0.724,0,1.682-0.064,2.229-0.353
				c0.267-0.121,0.427-0.211,0.427-0.566L156.4,43.606L156.4,43.606z"/>
		</g>
		<g>
			<path fill="#929497" d="M230.308,46.274c-2.274-1.888-2.836-4.371-2.836-6.437c0-1.459,0.544-3.999,2.628-5.942
				c1.418-1.308,3.541-2.326,7.158-2.326c0.944,0,2.256,0.067,3.411,0.259c0.897,0.158,1.638,0.287,2.388,0.329
				c0.246,0.029,0.299,0.108,0.299,0.248c0,0.169-0.063,0.437-0.105,1.215c-0.059,0.713-0.059,1.917-0.075,2.231
				c-0.026,0.328-0.069,0.464-0.198,0.464c-0.166,0-0.197-0.149-0.197-0.464c0-0.848-0.385-1.729-0.986-2.218
				c-0.816-0.643-2.627-1.229-4.697-1.229c-3.121,0-4.571,0.841-5.385,1.585c-1.725,1.52-2.123,3.463-2.123,5.677
				c0,4.151,3.45,7.962,8.471,7.962c1.752,0,3.142-0.191,4.088-1.099c0.484-0.468,0.793-1.421,0.854-1.818
				c0.06-0.238,0.104-0.326,0.251-0.326c0.105,0,0.166,0.152,0.166,0.326c0,0.149-0.299,2.044-0.521,2.777
				c-0.145,0.419-0.19,0.468-0.619,0.639c-0.928,0.346-2.713,0.5-4.219,0.5C234.541,48.628,232.166,47.817,230.308,46.274z"/>
			<path fill="#929497" d="M255.838,34.074c4.646,0,8.182,2.632,8.182,6.934c0,4.137-3.326,7.558-8.299,7.558
				c-5.647,0-8.061-3.941-8.061-7.27C247.661,38.319,250.146,34.074,255.838,34.074z M256.307,47.805
				c1.859,0,5.584-0.916,5.584-6.262c0-4.446-2.898-6.771-6.17-6.771c-3.438,0-5.937,1.997-5.937,6.016
				C249.785,45.109,252.582,47.805,256.307,47.805z"/>
			<path fill="#929497" d="M270.963,45.794c0.053,1.535,0.234,1.984,0.787,2.114c0.383,0.09,0.852,0.104,1.031,0.104
				c0.104,0,0.172,0.068,0.172,0.164c0,0.093-0.146,0.152-0.381,0.152c-1.162,0-1.99-0.072-2.184-0.072
				c-0.178,0-1.049,0.072-1.979,0.072c-0.221,0-0.342-0.022-0.342-0.152c0-0.096,0.078-0.164,0.168-0.164
				c0.174,0,0.527-0.014,0.836-0.104c0.52-0.13,0.594-0.63,0.594-2.305v-10.6c0-0.742,0.113-0.93,0.279-0.93
				c0.236,0,0.594,0.369,0.803,0.567c0.336,0.308,3.33,3.262,6.518,6.311c2.041,1.957,4.254,4.158,4.887,4.76l-0.221-9.267
				c-0.016-1.197-0.137-1.607-0.768-1.715c-0.369-0.072-0.838-0.089-1.008-0.089c-0.145,0-0.156-0.112-0.156-0.17
				c0-0.116,0.156-0.139,0.393-0.139c0.932,0,1.92,0.046,2.156,0.046s0.914-0.046,1.771-0.046c0.209,0,0.373,0.021,0.373,0.139
				c0,0.058-0.109,0.17-0.242,0.17c-0.104,0-0.244,0-0.484,0.04c-0.695,0.129-0.738,0.499-0.738,1.608l-0.047,10.841
				c0,1.209-0.027,1.318-0.158,1.318c-0.203,0-0.426-0.144-1.566-1.119c-0.219-0.181-3.199-2.904-5.389-5.01
				c-2.393-2.325-4.709-4.598-5.354-5.246L270.963,45.794z"/>
			<path fill="#929497" d="M289.664,48.058c-0.291-0.128-0.307-0.191-0.307-0.697c0-0.911,0.08-1.648,0.113-1.948
				c0-0.198,0.047-0.302,0.164-0.302s0.193,0.056,0.193,0.207c0,0.155,0,0.41,0.057,0.684c0.344,1.342,1.883,1.817,3.262,1.817
				c2.049,0,3.111-1.062,3.111-2.447c0-1.326-0.777-1.971-2.613-3.222l-0.922-0.655c-2.248-1.538-2.971-2.679-2.971-3.962
				c0-2.174,1.859-3.478,4.574-3.478c0.811,0,1.654,0.105,2.139,0.208c0.396,0.093,0.562,0.093,0.727,0.093
				c0.162,0,0.205,0.023,0.205,0.134c0,0.091-0.086,0.691-0.086,1.957c0,0.281-0.027,0.417-0.166,0.417
				c-0.146,0-0.162-0.095-0.191-0.244c-0.012-0.212-0.174-0.715-0.299-0.92c-0.146-0.202-0.82-0.907-2.674-0.907
				c-1.502,0-2.75,0.705-2.75,2.005c0,1.174,0.633,1.847,2.67,3.13l0.588,0.369c2.512,1.589,3.379,2.872,3.379,4.461
				c0,1.08-0.441,2.263-1.922,3.151c-0.867,0.526-2.146,0.656-3.285,0.656C291.701,48.565,290.508,48.436,289.664,48.058z"/>
			<path fill="#929497" d="M309.955,42.95c0,1.777,0,3.241,0.09,3.999c0.068,0.541,0.176,0.897,0.809,0.98
				c0.283,0.046,0.744,0.082,0.932,0.082c0.148,0,0.16,0.095,0.16,0.164c0,0.08-0.08,0.152-0.32,0.152
				c-1.121,0-2.438-0.072-2.557-0.072c-0.104,0-1.531,0.072-2.139,0.072c-0.234,0-0.322-0.061-0.322-0.152
				c0-0.069,0.043-0.138,0.16-0.138c0.189,0,0.418-0.04,0.609-0.081c0.426-0.092,0.543-0.468,0.605-1.009
				c0.098-0.758,0.098-2.222,0.098-3.999v-7.771l-2.98,0.049c-1.297,0.02-1.783,0.15-2.094,0.581
				c-0.227,0.335-0.252,0.463-0.32,0.597c-0.049,0.143-0.125,0.167-0.217,0.167c-0.053,0-0.146-0.042-0.146-0.151
				c0-0.19,0.4-1.843,0.457-2c0.018-0.109,0.133-0.348,0.209-0.348c0.131,0,0.352,0.148,0.918,0.224
				c0.58,0.057,1.385,0.081,1.621,0.081h7.795c0.676,0,1.133-0.046,1.475-0.081c0.314-0.047,0.502-0.093,0.58-0.093
				c0.102,0,0.102,0.107,0.102,0.217c0,0.56-0.062,1.894-0.062,2.11c0,0.151-0.104,0.236-0.191,0.236
				c-0.104,0-0.145-0.062-0.176-0.323l-0.031-0.197c-0.055-0.562-0.5-0.981-2.479-1.02l-2.584-0.049V42.95L309.955,42.95z"/>
			<path fill="#929497" d="M321.525,39.688c0-2.866,0-3.397-0.045-3.988c-0.059-0.627-0.162-0.927-0.84-1.018
				c-0.174-0.023-0.531-0.04-0.711-0.04c-0.07,0-0.162-0.091-0.162-0.152c0-0.11,0.092-0.156,0.322-0.156
				c0.947,0,2.332,0.046,2.436,0.046c0.229,0,1.957-0.046,2.586-0.046c1.311,0,2.775,0.11,3.867,0.809
				c0.502,0.355,1.414,1.242,1.414,2.515c0,1.383-0.6,2.708-2.533,4.229c1.697,1.956,3.121,3.634,4.32,4.784
				c1.098,1.043,1.787,1.221,2.301,1.288c0.4,0.055,0.605,0.055,0.721,0.055c0.121,0,0.195,0.095,0.195,0.164
				c0,0.093-0.119,0.152-0.498,0.152h-1.289c-1.182,0-1.682-0.113-2.207-0.371c-0.893-0.441-1.639-1.333-2.809-2.723
				c-0.869-0.999-1.787-2.203-2.23-2.694c-0.1-0.099-0.146-0.109-0.273-0.109l-2.646-0.05c-0.084,0-0.131,0.05-0.131,0.159v0.43
				c0,1.787,0,3.222,0.086,3.979c0.078,0.541,0.193,0.897,0.828,0.98c0.281,0.046,0.725,0.082,0.916,0.082
				c0.148,0,0.156,0.095,0.156,0.164c0,0.08-0.086,0.152-0.334,0.152c-1.127,0-2.439-0.072-2.525-0.072
				c-0.016,0-1.4,0.072-2.033,0.072c-0.203,0-0.326-0.061-0.326-0.152c0-0.069,0.031-0.164,0.146-0.164
				c0.191,0,0.459-0.036,0.652-0.082c0.383-0.083,0.441-0.439,0.527-0.98c0.119-0.758,0.119-2.222,0.119-3.999V39.688
				L321.525,39.688z M323.312,41.254c0,0.107,0.045,0.178,0.129,0.238c0.318,0.148,1.361,0.28,2.289,0.28
				c0.486,0,1.053-0.018,1.547-0.328c0.695-0.438,1.242-1.407,1.242-2.825c0-2.305-1.354-3.639-3.57-3.639
				c-0.605,0-1.266,0.077-1.473,0.115c-0.092,0.044-0.164,0.112-0.164,0.215V41.254z"/>
			<path fill="#929497" d="M337.998,39.688c0-2.866,0-3.397-0.045-3.988c-0.045-0.588-0.164-0.927-0.859-1.018
				c-0.146-0.023-0.502-0.04-0.695-0.04c-0.074,0-0.156-0.091-0.156-0.152c0-0.11,0.082-0.156,0.322-0.156
				c0.941,0,2.188,0.046,2.379,0.046c0.189,0,1.469-0.046,2.074-0.046c0.24,0,0.361,0.046,0.361,0.156
				c0,0.062-0.094,0.152-0.191,0.152c-0.135,0-0.252,0-0.504,0.04c-0.549,0.091-0.668,0.416-0.711,1.018
				c-0.059,0.591-0.059,1.123-0.059,3.988v2.594c0,2.673,0.637,3.782,1.535,4.513c1.006,0.854,1.904,1.012,3.064,1.012
				c1.275,0,2.494-0.525,3.205-1.305c0.961-1.074,1.166-2.594,1.166-4.482v-2.331c0-2.866-0.027-3.397-0.037-3.988
				c-0.039-0.588-0.15-0.927-0.832-1.018c-0.16-0.023-0.518-0.04-0.711-0.04c-0.092,0-0.158-0.091-0.158-0.152
				c0-0.11,0.102-0.156,0.334-0.156c0.916,0,2.111,0.046,2.234,0.046c0.131,0,1.121-0.046,1.725-0.046
				c0.232,0,0.336,0.046,0.336,0.156c0,0.062-0.074,0.152-0.168,0.152c-0.137,0-0.238,0-0.525,0.04
				c-0.539,0.11-0.656,0.416-0.721,1.018c-0.045,0.591-0.012,1.123-0.012,3.988v1.976c0,2.005-0.287,4.25-1.939,5.549
				c-1.484,1.201-3.096,1.354-4.307,1.354c-0.676,0-2.846-0.05-4.305-1.309c-1.006-0.874-1.803-2.146-1.803-4.846v-2.724H337.998z"
				/>
			<path fill="#929497" d="M358.148,46.587c-2.016-1.613-2.502-3.723-2.502-5.484c0-1.237,0.486-3.393,2.314-5.044
				c1.236-1.108,3.127-1.983,6.297-1.983c0.82,0,1.982,0.068,3,0.224c0.787,0.124,1.43,0.253,2.109,0.281
				c0.229,0,0.27,0.078,0.27,0.192c0,0.148-0.041,0.369-0.109,1.038c-0.006,0.612-0.006,1.644-0.033,1.9
				c-0.033,0.289-0.125,0.383-0.238,0.383c-0.137,0-0.164-0.123-0.164-0.383c0-0.723-0.32-1.462-0.875-1.858
				c-0.719-0.561-2.221-1.014-4.053-1.014c-2.66,0-3.932,0.658-4.65,1.272c-1.521,1.314-1.846,2.968-1.846,4.842
				c0,3.543,3.023,6.695,7.441,6.695c1.549,0,2.576-0.108,3.395-0.866c0.457-0.419,0.734-1.203,0.799-1.546
				c0.055-0.199,0.066-0.261,0.219-0.261c0.086,0,0.178,0.136,0.178,0.261c0,0.136-0.285,1.732-0.488,2.365
				c-0.119,0.356-0.16,0.411-0.521,0.548c-0.838,0.301-2.387,0.417-3.715,0.417C361.859,48.565,359.775,47.89,358.148,46.587z"/>
			<path fill="#929497" d="M380.76,42.95c0,1.777,0,3.241,0.076,3.999c0.074,0.541,0.178,0.897,0.812,0.98
				c0.275,0.046,0.754,0.082,0.926,0.082c0.154,0,0.164,0.095,0.164,0.164c0,0.08-0.09,0.152-0.32,0.152
				c-1.121,0-2.441-0.072-2.559-0.072c-0.104,0-1.52,0.072-2.139,0.072c-0.217,0-0.32-0.061-0.32-0.152
				c0-0.069,0.041-0.138,0.156-0.138c0.195,0,0.432-0.04,0.609-0.081c0.432-0.092,0.547-0.468,0.621-1.009
				c0.082-0.758,0.082-2.222,0.082-3.999v-7.771l-2.977,0.049c-1.289,0.02-1.781,0.15-2.096,0.581
				c-0.223,0.335-0.254,0.463-0.33,0.597c-0.039,0.143-0.104,0.167-0.201,0.167c-0.049,0-0.131-0.042-0.131-0.151
				c0-0.19,0.383-1.843,0.439-2c0.018-0.109,0.135-0.348,0.205-0.348c0.133,0,0.354,0.148,0.92,0.224
				c0.572,0.057,1.389,0.081,1.619,0.081h7.777c0.689,0,1.148-0.046,1.494-0.081c0.305-0.047,0.498-0.093,0.59-0.093
				c0.084,0,0.084,0.107,0.084,0.217c0,0.56-0.07,1.894-0.07,2.11c0,0.151-0.096,0.236-0.18,0.236c-0.104,0-0.146-0.062-0.182-0.323
				l-0.012-0.197c-0.07-0.562-0.52-0.981-2.494-1.02l-2.568-0.049v7.771H380.76z"/>
			<path fill="#929497" d="M394.209,42.95c0,1.777,0,3.241,0.088,3.999c0.074,0.541,0.131,0.897,0.738,0.98
				c0.309,0.046,0.756,0.082,0.943,0.082c0.121,0,0.158,0.095,0.158,0.164c0,0.08-0.084,0.152-0.32,0.152
				c-1.15,0-2.49-0.072-2.586-0.072c-0.117,0-1.4,0.072-2.033,0.072c-0.201,0-0.32-0.061-0.32-0.152
				c0-0.069,0.037-0.164,0.156-0.164c0.182,0,0.447-0.036,0.639-0.082c0.377-0.083,0.459-0.439,0.533-0.98
				c0.1-0.758,0.131-2.222,0.131-3.999v-3.263c0-2.866,0-3.397-0.059-3.988c-0.045-0.627-0.229-0.907-0.664-1
				c-0.238-0.042-0.486-0.058-0.617-0.058c-0.109,0-0.18-0.091-0.18-0.152c0-0.11,0.098-0.156,0.336-0.156
				c0.678,0,1.961,0.046,2.078,0.046c0.096,0,1.436-0.046,2.07-0.046c0.23,0,0.328,0.046,0.328,0.156
				c0,0.062-0.096,0.152-0.164,0.152c-0.137,0-0.281,0-0.52,0.04c-0.562,0.11-0.678,0.377-0.725,1.018
				c-0.014,0.591-0.014,1.123-0.014,3.988v3.263H394.209z"/>
			<path fill="#929497" d="M408.73,34.074c4.65,0,8.16,2.632,8.16,6.934c0,4.137-3.307,7.558-8.277,7.558
				c-5.672,0-8.088-3.941-8.088-7.27C400.525,38.319,403.021,34.074,408.73,34.074z M409.203,47.805c1.842,0,5.58-0.916,5.58-6.262
				c0-4.446-2.924-6.771-6.17-6.771c-3.453,0-5.945,1.997-5.945,6.016C402.668,45.109,405.471,47.805,409.203,47.805z"/>
			<path fill="#929497" d="M423.834,45.794c0.049,1.535,0.227,1.984,0.803,2.114c0.369,0.09,0.832,0.104,1.033,0.104
				c0.092,0,0.166,0.068,0.166,0.164c0,0.093-0.148,0.152-0.387,0.152c-1.164,0-1.992-0.072-2.168-0.072
				c-0.207,0-1.066,0.072-2.008,0.072c-0.207,0-0.322-0.022-0.322-0.152c0-0.096,0.066-0.164,0.164-0.164
				c0.158,0,0.547-0.014,0.854-0.104c0.498-0.13,0.574-0.63,0.574-2.305v-10.6c0-0.742,0.119-0.93,0.279-0.93
				c0.236,0,0.588,0.369,0.795,0.567c0.344,0.308,3.336,3.262,6.539,6.311c2.021,1.957,4.234,4.158,4.871,4.76l-0.207-9.267
				c-0.033-1.197-0.146-1.607-0.766-1.715c-0.387-0.072-0.857-0.089-1.014-0.089c-0.158,0-0.166-0.112-0.166-0.17
				c0-0.116,0.166-0.139,0.396-0.139c0.928,0,1.914,0.046,2.152,0.046c0.232,0,0.916-0.046,1.77-0.046
				c0.205,0,0.369,0.021,0.369,0.139c0,0.058-0.102,0.17-0.238,0.17c-0.082,0-0.246,0-0.5,0.04
				c-0.662,0.129-0.721,0.499-0.721,1.608l-0.045,10.841c0,1.209-0.014,1.318-0.156,1.318c-0.215,0-0.424-0.144-1.586-1.119
				c-0.207-0.181-3.186-2.904-5.371-5.01c-2.389-2.325-4.707-4.598-5.346-5.246L423.834,45.794z"/>
		</g>
	</g>
	<polygon fill="#39BEBE" points="214.385,69.936 185.976,26.585 191.373,90.009 	"/>
</g>
</svg>
