<?xml version="1.0" encoding="utf-8"?>
<!-- Generator: Adobe Illustrator 16.0.0, SVG Export Plug-In . SVG Version: 6.00 Build 0)  -->
<svg version="1.2" baseProfile="tiny" id="Layer_1" xmlns="http://www.w3.org/2000/svg" xmlns:xlink="http://www.w3.org/1999/xlink"
	 x="0px" y="0px" width="320px" height="80px" viewBox="0 0 320 80" xml:space="preserve">
<g>
	<g>
		<path fill="#929497" d="M151.407,74l-28.353-48.737L96.634,74h-5.978l34.18-62.727h3.242L164.752,74H151.407z"/>
	</g>
	<g>
		<g>
			<path fill="#929497" d="M1.448,33.4c0-2.66,0-3.137-0.038-3.682c-0.042-0.576-0.177-0.844-0.779-0.967
				c-0.15-0.032-0.464-0.048-0.632-0.048c-0.078,0-0.142-0.04-0.142-0.108c0-0.097,0.09-0.133,0.289-0.133
				c0.83,0,1.917,0.048,2.022,0.048c0.171,0,1.231-0.048,1.784-0.048c0.196,0,0.289,0.037,0.289,0.133
				c0,0.068-0.066,0.108-0.149,0.108c-0.123,0-0.24,0.016-0.461,0.048c-0.483,0.084-0.634,0.38-0.667,0.967
				C2.925,30.263,2.925,30.74,2.925,33.4v1.015h0.071c0.302-0.321,3.626-3.456,4.296-4.12c0.506-0.492,0.989-0.93,0.989-1.22
				c0-0.202-0.089-0.312-0.239-0.357c-0.093-0.039-0.164-0.072-0.164-0.146c0-0.075,0.092-0.111,0.205-0.111
				c0.381,0,0.947,0.048,1.387,0.048c0.096,0,1.309-0.048,1.769-0.048c0.195,0,0.273,0.037,0.273,0.111
				c0,0.09-0.043,0.13-0.192,0.13c-0.265,0-0.648,0.084-1.018,0.234c-0.749,0.311-1.166,0.737-1.984,1.461
				c-0.461,0.41-3.647,3.304-4.04,3.725c0.476,0.493,4.295,4.152,5.044,4.806c1.546,1.32,1.856,1.596,2.75,1.938
				c0.47,0.187,1.001,0.215,1.131,0.215c0.134,0,0.241,0.035,0.241,0.106c0,0.085-0.095,0.14-0.408,0.14h-0.934
				c-0.52,0-0.864,0-1.269-0.046c-0.979-0.071-1.443-0.453-2.215-1.032c-0.829-0.625-4.724-4.519-5.612-5.523H2.925v1.667
				c0,1.627,0,2.974,0.081,3.69c0.059,0.488,0.163,0.868,0.716,0.934c0.268,0.036,0.556,0.064,0.72,0.064
				c0.113,0,0.149,0.054,0.149,0.106c0,0.085-0.094,0.14-0.292,0.14c-0.9,0-1.96-0.055-2.113-0.055c-0.147,0-1.21,0.055-1.763,0.055
				c-0.206,0-0.302-0.046-0.302-0.14c0-0.053,0.046-0.106,0.148-0.106c0.166,0,0.397-0.028,0.554-0.064
				c0.371-0.065,0.463-0.445,0.535-0.934c0.091-0.717,0.091-2.063,0.091-3.69V33.4z"/>
			<path fill="#929497" d="M16.212,34.57c0-2.242,0-2.658-0.042-3.12c-0.04-0.491-0.116-0.725-0.666-0.796
				c-0.12-0.018-0.4-0.031-0.552-0.031c-0.042,0-0.124-0.071-0.124-0.121c0-0.085,0.082-0.121,0.262-0.121
				c0.729,0,1.779,0.036,1.871,0.036c0.118,0,3.487,0.016,3.856,0c0.313-0.019,0.603-0.063,0.737-0.091
				c0.073-0.009,0.141-0.063,0.225-0.063c0.042,0,0.071,0.063,0.071,0.135c0,0.104-0.099,0.27-0.129,0.684
				c-0.025,0.132-0.062,0.784-0.093,0.951c-0.027,0.068-0.073,0.155-0.149,0.155c-0.092,0-0.132-0.075-0.132-0.185
				c0-0.104-0.021-0.343-0.09-0.514c-0.116-0.241-0.28-0.343-1.154-0.447c-0.278-0.03-2.146-0.053-2.335-0.053
				c-0.068,0-0.089,0.053-0.089,0.157v3.936c0,0.104,0,0.155,0.089,0.155c0.202,0,2.335,0,2.695-0.037
				c0.392-0.039,0.63-0.062,0.794-0.209c0.114-0.097,0.185-0.182,0.243-0.182c0.055,0,0.08,0.033,0.08,0.118
				c0,0.086-0.08,0.32-0.129,0.802c-0.03,0.29-0.064,0.823-0.064,0.931c0,0.116-0.04,0.274-0.142,0.274
				c-0.079,0-0.113-0.049-0.113-0.134c0-0.141,0-0.296-0.083-0.478c-0.042-0.21-0.193-0.38-0.813-0.445
				c-0.442-0.052-2.173-0.069-2.455-0.069c-0.081,0-0.101,0.058-0.101,0.104v1.209c0,0.493-0.021,2.172,0,2.467
				c0.037,0.968,0.318,1.155,1.929,1.155c0.418,0,1.189,0,1.612-0.155c0.418-0.162,0.64-0.419,0.732-1
				c0.034-0.169,0.079-0.223,0.168-0.223c0.095,0,0.104,0.12,0.104,0.223c0,0.1-0.126,1.085-0.215,1.396
				c-0.119,0.373-0.279,0.373-0.899,0.373c-1.217,0-2.15-0.03-2.808-0.047c-0.683-0.038-1.107-0.038-1.341-0.038
				c-0.031,0-0.344,0-0.702,0.009c-0.311,0.029-0.67,0.046-0.935,0.046c-0.164,0-0.256-0.046-0.256-0.117
				c0-0.054,0.035-0.129,0.123-0.129c0.157,0,0.351-0.044,0.504-0.064c0.31-0.05,0.357-0.343,0.425-0.768
				c0.091-0.591,0.091-1.736,0.091-3.127V34.57z"/>
			<path fill="#929497" d="M28.379,39.346c0.036,1.201,0.187,1.554,0.625,1.655c0.286,0.068,0.658,0.08,0.805,0.08
				c0.072,0,0.129,0.054,0.129,0.129c0,0.071-0.105,0.117-0.301,0.117c-0.924,0-1.557-0.055-1.699-0.055
				c-0.147,0-0.829,0.055-1.567,0.055c-0.166,0-0.254-0.017-0.254-0.117c0-0.075,0.061-0.129,0.126-0.129
				c0.128,0,0.424-0.012,0.657-0.08c0.415-0.102,0.473-0.494,0.473-1.803v-8.292c0-0.579,0.081-0.727,0.209-0.727
				c0.186,0,0.464,0.29,0.636,0.444c0.249,0.24,2.609,2.55,5.103,4.935c1.595,1.531,3.312,3.253,3.806,3.723l-0.159-7.248
				c-0.021-0.937-0.114-1.258-0.603-1.341c-0.301-0.056-0.669-0.069-0.795-0.069c-0.102,0-0.13-0.088-0.13-0.134
				c0-0.091,0.13-0.107,0.312-0.107c0.744,0,1.505,0.036,1.699,0.036c0.175,0,0.705-0.036,1.376-0.036
				c0.16,0,0.284,0.017,0.284,0.107c0,0.046-0.066,0.134-0.17,0.134c-0.083,0-0.206,0-0.394,0.031
				c-0.532,0.101-0.574,0.389-0.574,1.258l-0.038,8.479c0,0.946-0.012,1.031-0.126,1.031c-0.16,0-0.319-0.112-1.225-0.876
				c-0.163-0.141-2.505-2.271-4.213-3.918c-1.859-1.818-3.683-3.597-4.175-4.104L28.379,39.346z"/>
			<path fill="#929497" d="M44,34.57c0-2.242,0-2.658-0.037-3.12c-0.045-0.491-0.138-0.725-0.657-0.796
				c-0.132-0.018-0.415-0.031-0.556-0.031c-0.059,0-0.129-0.071-0.129-0.121c0-0.085,0.07-0.121,0.25-0.121
				c0.733,0,1.784,0.036,1.875,0.036c0.188,0,1.213-0.036,2.168-0.036c1.62,0,4.573-0.136,6.477,1.652
				c0.811,0.754,1.585,1.955,1.585,3.674c0,1.819-0.844,3.221-1.746,4.066c-0.703,0.664-2.144,1.668-4.89,1.668
				c-0.708,0-1.574-0.049-2.265-0.085c-0.704-0.047-1.259-0.085-1.331-0.085c-0.03,0-0.324,0.009-0.657,0.009
				c-0.334,0.029-0.715,0.046-0.968,0.046c-0.174,0-0.267-0.046-0.267-0.117c0-0.054,0.037-0.129,0.127-0.129
				c0.149,0,0.358-0.028,0.502-0.064c0.317-0.065,0.342-0.343,0.422-0.768C44,39.658,44,38.513,44,37.122V34.57z M45.465,36.139
				c0,1.528,0,2.877,0.022,3.143c0.008,0.354,0.056,0.889,0.169,1.039c0.208,0.269,0.783,0.579,2.694,0.579
				c1.491,0,2.804-0.461,3.773-1.311c0.845-0.734,1.268-2.115,1.268-3.442c0-1.827-0.863-3.006-1.521-3.622
				c-1.523-1.428-3.301-1.619-5.229-1.619c-0.312,0-0.832,0.054-0.985,0.108c-0.135,0.053-0.191,0.118-0.191,0.288V36.139z"/>
			<path fill="#929497" d="M64.797,30.179c3.635,0,6.385,2.059,6.385,5.422c0,3.236-2.587,5.911-6.485,5.911
				c-4.424,0-6.307-3.082-6.307-5.686C58.39,33.501,60.327,30.179,64.797,30.179z M65.158,40.918c1.45,0,4.371-0.715,4.371-4.897
				c0-3.477-2.273-5.295-4.832-5.295c-2.695,0-4.643,1.562-4.643,4.706C60.054,38.812,62.233,40.918,65.158,40.918z"/>
			<path fill="#929497" d="M76.619,39.346c0.022,1.201,0.181,1.554,0.612,1.655c0.298,0.068,0.669,0.08,0.817,0.08
				c0.074,0,0.124,0.054,0.124,0.129c0,0.071-0.112,0.117-0.295,0.117c-0.914,0-1.555-0.055-1.708-0.055s-0.823,0.055-1.559,0.055
				c-0.161,0-0.253-0.017-0.253-0.117c0-0.075,0.045-0.129,0.126-0.129c0.127,0,0.411-0.012,0.657-0.08
				c0.408-0.102,0.464-0.494,0.464-1.803v-8.292c0-0.579,0.092-0.727,0.214-0.727c0.188,0,0.452,0.29,0.627,0.444
				c0.268,0.24,2.612,2.55,5.103,4.935c1.592,1.531,3.328,3.253,3.823,3.723l-0.164-7.248c-0.021-0.937-0.114-1.258-0.611-1.341
				c-0.288-0.056-0.66-0.069-0.786-0.069c-0.104,0-0.126-0.088-0.126-0.134c0-0.091,0.126-0.107,0.31-0.107
				c0.729,0,1.501,0.036,1.685,0.036c0.186,0,0.717-0.036,1.371-0.036c0.176,0,0.308,0.017,0.308,0.107
				c0,0.046-0.087,0.134-0.188,0.134c-0.07,0-0.209,0-0.391,0.031c-0.534,0.101-0.569,0.389-0.569,1.258l-0.037,8.479
				c0,0.946-0.021,1.031-0.129,1.031c-0.156,0-0.332-0.112-1.217-0.876c-0.178-0.141-2.508-2.271-4.214-3.918
				c-1.874-1.818-3.683-3.597-4.19-4.104L76.619,39.346z"/>
			<path fill="#929497" d="M99.946,37.635c0-1.183-0.042-1.347-0.707-1.465c-0.126-0.023-0.398-0.031-0.551-0.031
				c-0.056,0-0.128-0.071-0.128-0.118c0-0.107,0.072-0.123,0.268-0.123c0.726,0,1.813,0.036,1.902,0.036
				c0.07,0,1.088-0.036,1.58-0.036c0.194,0,0.258,0.016,0.258,0.123c0,0.047-0.064,0.118-0.126,0.118c-0.104,0-0.221,0-0.402,0.031
				c-0.442,0.067-0.581,0.282-0.617,0.803c-0.006,0.453-0.006,0.878-0.006,1.498v1.612c0,0.661-0.024,0.676-0.222,0.783
				c-1.028,0.491-2.505,0.646-3.439,0.646c-1.226,0-3.52-0.134-5.322-1.548c-0.993-0.767-1.929-2.318-1.929-4.123
				c0-2.315,1.275-3.942,2.704-4.745c1.45-0.816,3.057-0.918,4.294-0.918c1.024,0,2.169,0.175,2.467,0.238
				c0.338,0.072,0.916,0.156,1.314,0.156c0.152,0,0.201,0.062,0.201,0.129c0,0.203-0.092,0.599-0.092,2.043
				c0,0.234-0.07,0.305-0.183,0.305c-0.093,0-0.105-0.081-0.105-0.219c-0.014-0.183-0.118-0.612-0.373-0.953
				c-0.402-0.546-1.637-1.125-3.726-1.125c-0.971,0-2.145,0.071-3.383,0.938c-0.933,0.667-1.591,1.957-1.591,3.641
				c0,2.045,1.14,3.504,1.708,4.002c1.279,1.103,2.64,1.51,4.132,1.51c0.566,0,1.315-0.049,1.743-0.274
				c0.208-0.095,0.334-0.165,0.334-0.442V37.635z"/>
		</g>
		<g>
			<path fill="#929497" d="M157.754,39.722c-1.779-1.477-2.218-3.419-2.218-5.035c0-1.14,0.426-3.127,2.055-4.647
				c1.109-1.022,2.771-1.819,5.599-1.819c0.739,0,1.765,0.053,2.668,0.202c0.703,0.125,1.281,0.225,1.866,0.257
				c0.194,0.023,0.234,0.084,0.234,0.195c0,0.131-0.049,0.341-0.082,0.95c-0.046,0.558-0.046,1.5-0.059,1.746
				c-0.022,0.257-0.055,0.364-0.157,0.364c-0.129,0-0.153-0.118-0.153-0.364c0-0.664-0.301-1.353-0.771-1.734
				c-0.64-0.502-2.057-0.961-3.675-0.961c-2.442,0-3.576,0.657-4.211,1.24c-1.349,1.188-1.662,2.708-1.662,4.44
				c0,3.248,2.699,6.228,6.626,6.228c1.369,0,2.457-0.15,3.198-0.857c0.377-0.366,0.62-1.112,0.667-1.423
				c0.044-0.188,0.083-0.256,0.196-0.256c0.082,0,0.129,0.118,0.129,0.256c0,0.116-0.233,1.599-0.407,2.173
				c-0.112,0.327-0.148,0.363-0.483,0.497c-0.726,0.271-2.122,0.391-3.3,0.391C161.065,41.562,159.207,40.931,157.754,39.722z"/>
			<path fill="#929497" d="M177.723,30.179c3.636,0,6.4,2.059,6.4,5.422c0,3.236-2.603,5.911-6.492,5.911
				c-4.418,0-6.304-3.082-6.304-5.686C171.327,33.501,173.271,30.179,177.723,30.179z M178.091,40.918
				c1.455,0,4.365-0.715,4.365-4.897c0-3.477-2.266-5.295-4.825-5.295c-2.688,0-4.643,1.562-4.643,4.706
				C172.988,38.812,175.176,40.918,178.091,40.918z"/>
			<path fill="#929497" d="M189.553,39.346c0.041,1.201,0.186,1.554,0.615,1.655c0.3,0.068,0.667,0.08,0.808,0.08
				c0.08,0,0.135,0.054,0.135,0.129c0,0.071-0.114,0.117-0.297,0.117c-0.91,0-1.559-0.055-1.709-0.055
				c-0.138,0-0.819,0.055-1.548,0.055c-0.173,0-0.267-0.017-0.267-0.117c0-0.075,0.061-0.129,0.132-0.129
				c0.135,0,0.412-0.012,0.653-0.08c0.406-0.102,0.464-0.494,0.464-1.803v-8.292c0-0.579,0.09-0.727,0.22-0.727
				c0.185,0,0.463,0.29,0.626,0.444c0.263,0.24,2.605,2.55,5.099,4.935c1.597,1.531,3.328,3.253,3.822,3.723l-0.173-7.248
				c-0.011-0.937-0.106-1.258-0.601-1.341c-0.289-0.056-0.655-0.069-0.788-0.069c-0.113,0-0.122-0.088-0.122-0.134
				c0-0.091,0.122-0.107,0.307-0.107c0.729,0,1.502,0.036,1.688,0.036c0.185,0,0.715-0.036,1.387-0.036
				c0.162,0,0.29,0.017,0.29,0.107c0,0.046-0.086,0.134-0.19,0.134c-0.079,0-0.19,0-0.378,0.031
				c-0.543,0.101-0.577,0.389-0.577,1.258l-0.038,8.479c0,0.946-0.021,1.031-0.123,1.031c-0.159,0-0.334-0.112-1.225-0.876
				c-0.17-0.141-2.502-2.271-4.216-3.918c-1.87-1.818-3.683-3.597-4.187-4.104L189.553,39.346z"/>
			<path fill="#929497" d="M204.181,41.116c-0.228-0.1-0.241-0.149-0.241-0.545c0-0.713,0.065-1.29,0.091-1.525
				c0-0.154,0.035-0.234,0.128-0.234c0.092,0,0.151,0.043,0.151,0.161c0,0.122,0,0.321,0.044,0.535
				c0.269,1.049,1.472,1.423,2.551,1.423c1.603,0,2.434-0.831,2.434-1.915c0-1.038-0.607-1.542-2.044-2.521l-0.722-0.513
				c-1.758-1.203-2.322-2.094-2.322-3.099c0-1.701,1.455-2.721,3.577-2.721c0.635,0,1.296,0.083,1.674,0.164
				c0.311,0.072,0.44,0.072,0.568,0.072c0.126,0,0.16,0.019,0.16,0.104c0,0.071-0.068,0.541-0.068,1.531
				c0,0.22-0.021,0.327-0.13,0.327c-0.113,0-0.126-0.074-0.15-0.192c-0.008-0.165-0.135-0.559-0.234-0.719
				c-0.112-0.159-0.64-0.71-2.091-0.71c-1.173,0-2.15,0.551-2.15,1.567c0,0.918,0.496,1.446,2.09,2.45l0.459,0.288
				c1.964,1.242,2.643,2.245,2.643,3.489c0,0.845-0.347,1.77-1.503,2.466c-0.679,0.411-1.679,0.512-2.571,0.512
				C205.773,41.513,204.841,41.412,204.181,41.116z"/>
			<path fill="#929497" d="M220.052,37.122c0,1.391,0,2.536,0.07,3.127c0.054,0.425,0.138,0.702,0.632,0.768
				c0.221,0.036,0.582,0.064,0.729,0.064c0.116,0,0.126,0.075,0.126,0.129c0,0.062-0.064,0.117-0.252,0.117
				c-0.877,0-1.906-0.055-1.999-0.055c-0.081,0-1.199,0.055-1.673,0.055c-0.183,0-0.251-0.046-0.251-0.117
				c0-0.054,0.032-0.109,0.124-0.109c0.149,0,0.327-0.031,0.478-0.063c0.331-0.07,0.425-0.363,0.474-0.788
				c0.076-0.591,0.076-1.736,0.076-3.127v-6.079l-2.333,0.039c-1.013,0.015-1.394,0.118-1.637,0.454
				c-0.176,0.263-0.196,0.363-0.251,0.467c-0.037,0.11-0.097,0.13-0.169,0.13c-0.041,0-0.114-0.033-0.114-0.119
				c0-0.149,0.312-1.442,0.358-1.564c0.013-0.085,0.103-0.272,0.164-0.272c0.101,0,0.273,0.116,0.717,0.175
				c0.454,0.044,1.083,0.063,1.268,0.063h6.099c0.527,0,0.884-0.036,1.152-0.063c0.246-0.037,0.393-0.073,0.453-0.073
				c0.078,0,0.078,0.084,0.078,0.17c0,0.438-0.048,1.482-0.048,1.65c0,0.118-0.082,0.185-0.148,0.185
				c-0.083,0-0.114-0.048-0.139-0.253l-0.024-0.154c-0.042-0.44-0.391-0.768-1.939-0.797l-2.02-0.039V37.122z"/>
			<path fill="#929497" d="M229.103,34.57c0-2.242,0-2.658-0.036-3.12c-0.046-0.491-0.126-0.725-0.656-0.796
				c-0.138-0.018-0.415-0.031-0.557-0.031c-0.056,0-0.126-0.071-0.126-0.121c0-0.085,0.07-0.121,0.252-0.121
				c0.741,0,1.824,0.036,1.904,0.036c0.179,0,1.53-0.036,2.021-0.036c1.026,0,2.172,0.087,3.026,0.632
				c0.393,0.277,1.105,0.971,1.105,1.967c0,1.082-0.469,2.119-1.98,3.308c1.327,1.529,2.441,2.842,3.379,3.742
				c0.858,0.815,1.398,0.954,1.8,1.007c0.313,0.044,0.473,0.044,0.562,0.044c0.095,0,0.153,0.075,0.153,0.129
				c0,0.071-0.092,0.117-0.389,0.117h-1.01c-0.924,0-1.314-0.087-1.726-0.29c-0.698-0.344-1.281-1.041-2.196-2.128
				c-0.68-0.781-1.397-1.723-1.745-2.107c-0.077-0.078-0.114-0.087-0.215-0.087l-2.069-0.038c-0.066,0-0.103,0.038-0.103,0.125
				v0.336c0,1.397,0,2.521,0.066,3.111c0.062,0.425,0.151,0.702,0.648,0.768c0.219,0.036,0.565,0.064,0.717,0.064
				c0.116,0,0.123,0.075,0.123,0.129c0,0.062-0.068,0.117-0.262,0.117c-0.882,0-1.908-0.055-1.977-0.055
				c-0.012,0-1.095,0.055-1.59,0.055c-0.16,0-0.255-0.046-0.255-0.117c0-0.054,0.024-0.129,0.113-0.129
				c0.151,0,0.36-0.028,0.511-0.064c0.301-0.065,0.346-0.343,0.414-0.768c0.094-0.591,0.094-1.736,0.094-3.127V34.57z
				 M230.499,35.796c0,0.083,0.036,0.138,0.103,0.187c0.247,0.116,1.064,0.219,1.79,0.219c0.38,0,0.823-0.015,1.21-0.257
				c0.544-0.343,0.971-1.101,0.971-2.21c0-1.801-1.06-2.846-2.793-2.846c-0.474,0-0.989,0.061-1.151,0.09
				c-0.071,0.035-0.129,0.088-0.129,0.169V35.796z"/>
			<path fill="#929497" d="M241.986,34.57c0-2.242,0-2.658-0.035-3.12c-0.036-0.46-0.129-0.725-0.672-0.796
				c-0.114-0.018-0.395-0.031-0.545-0.031c-0.059,0-0.122-0.071-0.122-0.121c0-0.085,0.063-0.121,0.252-0.121
				c0.736,0,1.71,0.036,1.862,0.036c0.146,0,1.147-0.036,1.621-0.036c0.188,0,0.283,0.036,0.283,0.121
				c0,0.049-0.073,0.121-0.15,0.121c-0.105,0-0.198,0-0.395,0.031c-0.429,0.071-0.522,0.324-0.555,0.796
				c-0.047,0.462-0.047,0.878-0.047,3.12v2.028c0,2.09,0.497,2.959,1.201,3.53c0.787,0.668,1.488,0.789,2.397,0.789
				c0.997,0,1.95-0.411,2.507-1.021c0.751-0.839,0.911-2.026,0.911-3.505V34.57c0-2.242-0.021-2.658-0.029-3.12
				c-0.028-0.46-0.118-0.725-0.648-0.796c-0.126-0.018-0.407-0.031-0.558-0.031c-0.072,0-0.125-0.071-0.125-0.121
				c0-0.085,0.08-0.121,0.261-0.121c0.718,0,1.653,0.036,1.748,0.036c0.104,0,0.877-0.036,1.351-0.036
				c0.183,0,0.263,0.036,0.263,0.121c0,0.049-0.06,0.121-0.131,0.121c-0.107,0-0.188,0-0.412,0.031
				c-0.422,0.086-0.513,0.324-0.563,0.796c-0.035,0.462-0.008,0.878-0.008,3.12v1.544c0,1.568-0.226,3.324-1.519,4.339
				c-1.16,0.94-2.421,1.06-3.368,1.06c-0.527,0-2.226-0.037-3.366-1.022c-0.787-0.684-1.409-1.679-1.409-3.791V34.57z"/>
			<path fill="#929497" d="M257.747,39.965c-1.576-1.26-1.956-2.91-1.956-4.288c0-0.968,0.38-2.653,1.809-3.945
				c0.969-0.868,2.447-1.552,4.927-1.552c0.642,0,1.55,0.053,2.347,0.175c0.614,0.097,1.118,0.198,1.649,0.219
				c0.179,0,0.211,0.062,0.211,0.151c0,0.116-0.032,0.289-0.086,0.812c-0.005,0.479-0.005,1.285-0.026,1.487
				c-0.026,0.226-0.099,0.299-0.188,0.299c-0.105,0-0.128-0.096-0.128-0.299c0-0.565-0.25-1.144-0.685-1.454
				c-0.562-0.438-1.736-0.794-3.17-0.794c-2.079,0-3.073,0.516-3.637,0.997c-1.19,1.028-1.444,2.321-1.444,3.786
				c0,2.771,2.365,5.238,5.821,5.238c1.212,0,2.016-0.087,2.654-0.68c0.359-0.326,0.575-0.941,0.626-1.208
				c0.042-0.157,0.051-0.204,0.171-0.204c0.066,0,0.138,0.106,0.138,0.204c0,0.106-0.223,1.355-0.381,1.85
				c-0.094,0.278-0.125,0.322-0.408,0.429c-0.656,0.235-1.866,0.325-2.906,0.325C260.65,41.513,259.021,40.984,257.747,39.965z"/>
			<path fill="#929497" d="M275.434,37.122c0,1.391,0,2.536,0.059,3.127c0.059,0.425,0.14,0.702,0.637,0.768
				c0.216,0.036,0.591,0.064,0.725,0.064c0.119,0,0.129,0.075,0.129,0.129c0,0.062-0.071,0.117-0.251,0.117
				c-0.878,0-1.91-0.055-2.001-0.055c-0.083,0-1.189,0.055-1.674,0.055c-0.17,0-0.251-0.046-0.251-0.117
				c0-0.054,0.033-0.109,0.124-0.109c0.15,0,0.337-0.031,0.475-0.063c0.338-0.07,0.429-0.363,0.487-0.788
				c0.063-0.591,0.063-1.736,0.063-3.127v-6.079l-2.327,0.039c-1.008,0.015-1.393,0.118-1.639,0.454
				c-0.174,0.263-0.198,0.363-0.259,0.467c-0.03,0.11-0.081,0.13-0.158,0.13c-0.038,0-0.102-0.033-0.102-0.119
				c0-0.149,0.299-1.442,0.345-1.564c0.014-0.085,0.104-0.272,0.16-0.272c0.104,0,0.275,0.116,0.72,0.175
				c0.447,0.044,1.085,0.063,1.267,0.063h6.083c0.54,0,0.899-0.036,1.169-0.063c0.236-0.037,0.39-0.073,0.462-0.073
				c0.065,0,0.065,0.084,0.065,0.17c0,0.438-0.056,1.482-0.056,1.65c0,0.118-0.073,0.185-0.141,0.185
				c-0.08,0-0.116-0.048-0.143-0.253l-0.008-0.154c-0.056-0.44-0.406-0.768-1.951-0.797l-2.01-0.039V37.122z"/>
			<path fill="#929497" d="M285.951,37.122c0,1.391,0,2.536,0.069,3.127c0.059,0.425,0.103,0.702,0.577,0.768
				c0.242,0.036,0.591,0.064,0.739,0.064c0.096,0,0.125,0.075,0.125,0.129c0,0.062-0.067,0.117-0.252,0.117
				c-0.899,0-1.947-0.055-2.022-0.055c-0.091,0-1.096,0.055-1.591,0.055c-0.158,0-0.252-0.046-0.252-0.117
				c0-0.054,0.029-0.129,0.124-0.129c0.142,0,0.352-0.028,0.5-0.064c0.294-0.065,0.358-0.343,0.417-0.768
				c0.077-0.591,0.102-1.736,0.102-3.127V34.57c0-2.242,0-2.658-0.045-3.12c-0.036-0.491-0.18-0.71-0.52-0.782
				c-0.188-0.032-0.382-0.045-0.484-0.045c-0.084,0-0.138-0.071-0.138-0.121c0-0.085,0.073-0.121,0.262-0.121
				c0.529,0,1.534,0.036,1.625,0.036c0.075,0,1.123-0.036,1.62-0.036c0.182,0,0.256,0.036,0.256,0.121
				c0,0.049-0.074,0.121-0.129,0.121c-0.106,0-0.219,0-0.405,0.031c-0.439,0.086-0.529,0.295-0.566,0.796
				c-0.012,0.462-0.012,0.878-0.012,3.12V37.122z"/>
			<path fill="#929497" d="M297.312,30.179c3.638,0,6.383,2.059,6.383,5.422c0,3.236-2.588,5.911-6.475,5.911
				c-4.437,0-6.326-3.082-6.326-5.686C290.894,33.501,292.846,30.179,297.312,30.179z M297.681,40.918
				c1.44,0,4.364-0.715,4.364-4.897c0-3.477-2.285-5.295-4.825-5.295c-2.702,0-4.65,1.562-4.65,4.706
				C292.569,38.812,294.763,40.918,297.681,40.918z"/>
			<path fill="#929497" d="M309.126,39.346c0.036,1.201,0.175,1.554,0.627,1.655c0.289,0.068,0.65,0.08,0.808,0.08
				c0.072,0,0.13,0.054,0.13,0.129c0,0.071-0.116,0.117-0.301,0.117c-0.912,0-1.56-0.055-1.697-0.055
				c-0.161,0-0.833,0.055-1.569,0.055c-0.162,0-0.254-0.017-0.254-0.117c0-0.075,0.053-0.129,0.128-0.129
				c0.126,0,0.429-0.012,0.668-0.08c0.391-0.102,0.451-0.494,0.451-1.803v-8.292c0-0.579,0.092-0.727,0.218-0.727
				c0.185,0,0.46,0.29,0.62,0.444c0.27,0.24,2.61,2.55,5.116,4.935c1.582,1.531,3.312,3.253,3.811,3.723l-0.162-7.248
				c-0.026-0.937-0.115-1.258-0.599-1.341c-0.302-0.056-0.671-0.069-0.794-0.069s-0.129-0.088-0.129-0.134
				c0-0.091,0.129-0.107,0.311-0.107c0.727,0,1.496,0.036,1.684,0.036c0.183,0,0.717-0.036,1.386-0.036
				c0.159,0,0.288,0.017,0.288,0.107c0,0.046-0.08,0.134-0.188,0.134c-0.064,0-0.193,0-0.391,0.031
				c-0.517,0.101-0.563,0.389-0.563,1.258l-0.036,8.479c0,0.946-0.01,1.031-0.121,1.031c-0.169,0-0.331-0.112-1.242-0.876
				c-0.161-0.141-2.49-2.271-4.199-3.918c-1.869-1.818-3.682-3.597-4.182-4.104L309.126,39.346z"/>
		</g>
	</g>
	<polygon fill="#39BEBE" points="145.3,58.229 123.079,24.321 127.3,73.93 	"/>
</g>
<g>
</g>
<g>
</g>
<g>
</g>
<g>
</g>
<g>
</g>
<g>
</g>
</svg>
